<svg width="134" height="44" viewBox="0 0 134 44" fill="none" xmlns="http://www.w3.org/2000/svg">
<path d="M56.3422 15.26C57.8097 15.26 59.0972 15.5469 60.2045 16.1205C61.3252 16.6942 62.1857 17.5147 62.7861 18.582C63.3998 19.636 63.7067 20.8634 63.7067 22.2643C63.7067 23.6651 63.3998 24.8925 62.7861 25.9465C62.1857 26.9872 61.3252 27.7943 60.2045 28.368C59.0972 28.9417 57.8097 29.2285 56.3422 29.2285H51.4592V15.26H56.3422ZM56.2421 26.8471C57.7097 26.8471 58.8437 26.4468 59.6442 25.6463C60.4447 24.8458 60.8449 23.7185 60.8449 22.2643C60.8449 20.8101 60.4447 19.676 59.6442 18.8622C58.8437 18.035 57.7097 17.6215 56.2421 17.6215H54.2609V26.8471H56.2421ZM67.2247 16.821C66.7311 16.821 66.3175 16.6675 65.984 16.3607C65.6638 16.0405 65.5037 15.6469 65.5037 15.18C65.5037 14.713 65.6638 14.3261 65.984 14.0193C66.3175 13.6991 66.7311 13.539 67.2247 13.539C67.7184 13.539 68.1253 13.6991 68.4455 14.0193C68.779 14.3261 68.9458 14.713 68.9458 15.18C68.9458 15.6469 68.779 16.0405 68.4455 16.3607C68.1253 16.6675 67.7184 16.821 67.2247 16.821ZM68.6056 18.1418V29.2285H65.8039V18.1418H68.6056ZM75.9965 26.6469L78.7982 18.1418H81.78L77.6775 29.2285H74.2754L70.193 18.1418H73.1948L75.9965 26.6469ZM93.6599 23.445C93.6599 23.8452 93.6332 24.2055 93.5798 24.5257H85.4749C85.5416 25.3261 85.8218 25.9532 86.3154 26.4068C86.8091 26.8604 87.4161 27.0872 88.1365 27.0872C89.1772 27.0872 89.9176 26.6403 90.3579 25.7464H93.3797C93.0595 26.8137 92.4458 27.6942 91.5386 28.388C90.6314 29.0684 89.5174 29.4086 88.1966 29.4086C87.1292 29.4086 86.1687 29.1751 85.3148 28.7082C84.4743 28.2279 83.8139 27.5542 83.3336 26.687C82.8667 25.8198 82.6332 24.8192 82.6332 23.6851C82.6332 22.5378 82.8667 21.5305 83.3336 20.6633C83.8006 19.7961 84.4543 19.129 85.2948 18.6621C86.1353 18.1951 87.1026 17.9617 88.1966 17.9617C89.2505 17.9617 90.1911 18.1885 91.0183 18.6421C91.8588 19.0957 92.5059 19.7427 92.9595 20.5833C93.4264 21.4104 93.6599 22.3643 93.6599 23.445ZM90.7581 22.6445C90.7448 21.9241 90.4846 21.3504 89.9776 20.9235C89.4707 20.4832 88.8503 20.2631 88.1165 20.2631C87.4228 20.2631 86.8357 20.4765 86.3554 20.9034C85.8885 21.317 85.6017 21.8974 85.4949 22.6445H90.7581ZM100.528 29.3686C99.5539 29.3686 98.6734 29.2018 97.8862 28.8683C97.1124 28.5348 96.4987 28.0545 96.0451 27.4274C95.5915 26.8004 95.358 26.0599 95.3447 25.2061H98.3465C98.3865 25.7798 98.5866 26.2334 98.9469 26.5669C99.3204 26.9004 99.8274 27.0672 100.468 27.0672C101.122 27.0672 101.635 26.9138 102.009 26.6069C102.382 26.2867 102.569 25.8731 102.569 25.3662C102.569 24.9526 102.442 24.6124 102.189 24.3455C101.935 24.0787 101.615 23.8719 101.228 23.7252C100.855 23.5651 100.334 23.3916 99.6673 23.2048C98.7601 22.938 98.0196 22.6779 97.4459 22.4244C96.8856 22.1575 96.3986 21.764 95.9851 21.2437C95.5848 20.71 95.3847 20.0029 95.3847 19.1224C95.3847 18.2952 95.5915 17.5748 96.0051 16.961C96.4187 16.3473 96.999 15.8804 97.7461 15.5602C98.4932 15.2267 99.3471 15.0599 100.308 15.0599C101.749 15.0599 102.916 15.4134 103.81 16.1205C104.717 16.8143 105.217 17.7882 105.311 19.0423H102.229C102.202 18.562 101.995 18.1685 101.608 17.8616C101.235 17.5414 100.735 17.3813 100.108 17.3813C99.5606 17.3813 99.1203 17.5214 98.7868 17.8016C98.4666 18.0817 98.3065 18.4886 98.3065 19.0223C98.3065 19.3959 98.4265 19.7094 98.6667 19.9629C98.9202 20.203 99.227 20.4031 99.5872 20.5632C99.9608 20.71 100.481 20.8834 101.148 21.0836C102.055 21.3504 102.796 21.6172 103.37 21.884C103.943 22.1509 104.437 22.5511 104.85 23.0848C105.264 23.6184 105.471 24.3189 105.471 25.1861C105.471 25.9332 105.277 26.6269 104.89 27.2673C104.504 27.9077 103.937 28.4214 103.189 28.8083C102.442 29.1818 101.555 29.3686 100.528 29.3686ZM118.206 23.445C118.206 23.8452 118.179 24.2055 118.126 24.5257H110.021C110.088 25.3261 110.368 25.9532 110.862 26.4068C111.355 26.8604 111.962 27.0872 112.683 27.0872C113.723 27.0872 114.464 26.6403 114.904 25.7464H117.926C117.606 26.8137 116.992 27.6942 116.085 28.388C115.178 29.0684 114.064 29.4086 112.743 29.4086C111.675 29.4086 110.715 29.1751 109.861 28.7082C109.02 28.2279 108.36 27.5542 107.88 26.687C107.413 25.8198 107.179 24.8192 107.179 23.6851C107.179 22.5378 107.413 21.5305 107.88 20.6633C108.347 19.7961 109 19.129 109.841 18.6621C110.682 18.1951 111.649 17.9617 112.743 17.9617C113.797 17.9617 114.737 18.1885 115.564 18.6421C116.405 19.0957 117.052 19.7427 117.506 20.5833C117.973 21.4104 118.206 22.3643 118.206 23.445ZM115.304 22.6445C115.291 21.9241 115.031 21.3504 114.524 20.9235C114.017 20.4832 113.396 20.2631 112.663 20.2631C111.969 20.2631 111.382 20.4765 110.902 20.9034C110.435 21.317 110.148 21.8974 110.041 22.6445H115.304ZM119.531 23.6451C119.531 22.5244 119.751 21.5305 120.191 20.6633C120.645 19.7961 121.252 19.129 122.012 18.6621C122.786 18.1951 123.646 17.9617 124.594 17.9617C125.421 17.9617 126.141 18.1284 126.755 18.462C127.382 18.7955 127.882 19.2158 128.256 19.7227V18.1418H131.078V29.2285H128.256V27.6075C127.896 28.1278 127.395 28.5614 126.755 28.9083C126.128 29.2419 125.401 29.4086 124.574 29.4086C123.64 29.4086 122.786 29.1685 122.012 28.6882C121.252 28.2079 120.645 27.5342 120.191 26.667C119.751 25.7864 119.531 24.7791 119.531 23.6451ZM128.256 23.6851C128.256 23.0047 128.123 22.4244 127.856 21.9441C127.589 21.4504 127.229 21.0769 126.775 20.8234C126.321 20.5566 125.834 20.4232 125.314 20.4232C124.794 20.4232 124.314 20.5499 123.873 20.8034C123.433 21.0569 123.073 21.4304 122.793 21.9241C122.526 22.4044 122.392 22.978 122.392 23.6451C122.392 24.3122 122.526 24.8992 122.793 25.4062C123.073 25.8998 123.433 26.2801 123.873 26.5469C124.327 26.8137 124.807 26.9471 125.314 26.9471C125.834 26.9471 126.321 26.8204 126.775 26.5669C127.229 26.3001 127.589 25.9265 127.856 25.4462C128.123 24.9526 128.256 24.3656 128.256 23.6851Z" fill="white"/>
<path d="M38.4912 29.6329C36.8972 29.6329 36.1908 29.0171 35.1945 28.1476C34.0896 27.2057 32.713 26.0103 30.1228 26.0103C27.5145 26.0103 26.1559 27.2057 25.051 28.1476C24.0548 29.0171 23.3302 29.6329 21.7363 29.6329C20.1604 29.6329 19.4358 29.0171 18.4396 28.1476C17.3347 27.2057 15.9581 26.0103 13.3678 26.0103C10.7595 26.0103 9.38289 27.2057 8.27797 28.1476C7.28173 29.0171 6.5753 29.6329 4.98131 29.6329C4.23866 29.6329 3.6228 30.2488 3.6228 30.9915C3.6228 31.7522 4.23866 32.35 4.98131 32.35C7.58965 32.35 8.94814 31.1726 10.0531 30.2126C11.0493 29.3431 11.7739 28.7273 13.3678 28.7273C14.9618 28.7273 15.6683 29.3431 16.6645 30.2126C17.7694 31.1726 19.146 32.35 21.7363 32.35C24.3446 32.35 25.7212 31.1726 26.8261 30.2126C27.8224 29.3431 28.5288 28.7273 30.1228 28.7273C31.6987 28.7273 32.4232 29.3431 33.4195 30.2126C34.5244 31.1726 35.901 32.35 38.4912 32.35C39.2339 32.35 39.8497 31.7522 39.8497 30.9915C39.8497 30.2488 39.2339 29.6329 38.4912 29.6329Z" fill="white"/>
<path d="M38.4912 22.171C36.8972 22.171 36.1908 21.5371 35.1945 20.6857C34.0896 19.7257 32.713 18.5483 30.1228 18.5483C27.5145 18.5483 26.1559 19.7257 25.051 20.6857C24.0548 21.5371 23.3302 22.171 21.7363 22.171C20.1604 22.171 19.4358 21.5371 18.4396 20.6857C17.3347 19.7257 15.9581 18.5483 13.3678 18.5483C10.7595 18.5483 9.38289 19.7257 8.27797 20.6857C7.28173 21.5371 6.5753 22.171 4.98131 22.171C4.23866 22.171 3.6228 22.7688 3.6228 23.5295C3.6228 24.2722 4.23866 24.888 4.98131 24.888C7.58965 24.888 8.94814 23.6926 10.0531 22.7325C11.0493 21.8812 11.7739 21.2654 13.3678 21.2654C14.9618 21.2654 15.6683 21.8812 16.6645 22.7325C17.7694 23.6926 19.146 24.888 21.7363 24.888C24.3446 24.888 25.7212 23.6926 26.8261 22.7325C27.8224 21.8812 28.5288 21.2654 30.1228 21.2654C31.6987 21.2654 32.4232 21.8812 33.4195 22.7325C34.5244 23.6926 35.901 24.888 38.4912 24.888C39.2339 24.888 39.8497 24.2722 39.8497 23.5295C39.8497 22.7688 39.2339 22.171 38.4912 22.171Z" fill="white"/>
<path d="M4.98131 17.4603C7.58965 17.4603 8.94814 16.2648 10.0531 15.3229C11.0493 14.4535 11.7739 13.8376 13.3678 13.8376C14.9618 13.8376 15.6683 14.4535 16.6645 15.3229C17.7694 16.2648 19.146 17.4603 21.7363 17.4603C24.3446 17.4603 25.7212 16.2648 26.8261 15.3229C27.8224 14.4535 28.5288 13.8376 30.1228 13.8376C31.6987 13.8376 32.4232 14.4535 33.4195 15.3229C34.5244 16.2648 35.901 17.4603 38.4912 17.4603C39.2338 17.4603 39.8497 16.8445 39.8497 16.1018C39.8497 15.341 39.2338 14.7433 38.4912 14.7433C36.8972 14.7433 36.1908 14.1274 35.1945 13.258C34.0896 12.298 32.713 11.1206 30.1228 11.1206C27.5145 11.1206 26.1559 12.298 25.051 13.258C24.0548 14.1274 23.3302 14.7433 21.7363 14.7433C20.1604 14.7433 19.4358 14.1274 18.4396 13.258C17.3347 12.298 15.9581 11.1206 13.3678 11.1206C10.7595 11.1206 9.38289 12.298 8.27797 13.258C7.28173 14.1274 6.5753 14.7433 4.98131 14.7433C4.23866 14.7433 3.6228 15.341 3.6228 16.1018C3.6228 16.8445 4.23866 17.4603 4.98131 17.4603Z" fill="white"/>
</svg>
